<?xml version="1.0" encoding="UTF-8" standalone="no"?>
<!-- Created with Inkscape (http://www.inkscape.org/) -->

<svg
   xmlns:dc="http://purl.org/dc/elements/1.1/"
   xmlns:cc="http://creativecommons.org/ns#"
   xmlns:rdf="http://www.w3.org/1999/02/22-rdf-syntax-ns#"
   xmlns:svg="http://www.w3.org/2000/svg"
   xmlns="http://www.w3.org/2000/svg"
   xmlns:sodipodi="http://sodipodi.sourceforge.net/DTD/sodipodi-0.dtd"
   xmlns:inkscape="http://www.inkscape.org/namespaces/inkscape"
   width="320"
   height="132"
   viewBox="0 0 84.666675 34.924999"
   version="1.1"
   id="svg4669"
   inkscape:version="0.92.3 (3ce5693, 2018-03-11)"
   sodipodi:docname="kalia-logo.svg"
   inkscape:export-filename="/home/i/Documents/kalia-logo.svg.png"
   inkscape:export-xdpi="96"
   inkscape:export-ydpi="96">
  <defs
     id="defs4663" />
  <sodipodi:namedview
     id="base"
     pagecolor="#ffffff"
     bordercolor="#666666"
     borderopacity="1.0"
     inkscape:pageopacity="0.0"
     inkscape:pageshadow="2"
     inkscape:zoom="1.979899"
     inkscape:cx="130.69489"
     inkscape:cy="26.210648"
     inkscape:document-units="mm"
     inkscape:current-layer="layer1"
     showgrid="false"
     fit-margin-top="0"
     fit-margin-left="0"
     fit-margin-right="0"
     fit-margin-bottom="0"
     inkscape:window-width="1920"
     inkscape:window-height="1031"
     inkscape:window-x="0"
     inkscape:window-y="25"
     inkscape:window-maximized="1"
     units="px" />
  <metadata
     id="metadata4666">
    <rdf:RDF>
      <cc:Work
         rdf:about="">
        <dc:format>image/svg+xml</dc:format>
        <dc:type
           rdf:resource="http://purl.org/dc/dcmitype/StillImage" />
        <dc:title></dc:title>
      </cc:Work>
    </rdf:RDF>
  </metadata>
  <g
     inkscape:label="Layer 1"
     inkscape:groupmode="layer"
     id="layer1"
     transform="translate(-163.46044,54.699494)">
    <rect
       style="fill:none;fill-opacity:1;stroke-width:0.40000001;stroke-miterlimit:4;stroke-dasharray:none"
       id="rect5503"
       width="294.53101"
       height="193.50314"
       x="62.570763"
       y="-134.46548" />
    <path
       d="m 193.26109,-31.433301 c -1.14319,-2.639255 0.0646,-6.883144 0.0646,-6.883144 0,0 13.43629,-2.516233 12.43987,9.516903 -4.75947,2.419829 -10.56718,1.395332 -12.50443,-2.633759 z m -4.68595,3.104182 c -3.71701,-5.43253 0.38444,-10.01338 0.27473,-14.996913 6.59366,1.569602 12.61646,0.33349 16.43973,3.788237 1.97083,1.780922 3.77347,4.945031 3.32447,9.195862 l -0.53468,5.060251 c 0,0 -3.49209,1.024497 -1.78904,-1.560633 -3.13109,2.689058 -15.11907,2.306931 -17.71521,-1.486804 z"
       style="fill:#29a6e5;fill-opacity:1;fill-rule:evenodd;stroke:none;stroke-width:0.28948778"
       id="path4048"
       inkscape:connector-curvature="0" />
    <path
       d="m 186.84372,-25.005798 h -4.05283 l -7.32085,-7.990153 -1.99371,1.894984 v 6.095169 h -3.07234 v -25.426295 h 3.07234 v 16.308586 l 8.87367,-9.134785 h 3.87306 l -8.48112,8.43133 z"
       style="fill:#000000;fill-opacity:1;fill-rule:evenodd;stroke:none;stroke-width:0.28948778"
       id="path4050"
       inkscape:connector-curvature="0" />
    <path
       d="m 210.24476,-50.432093 h 3.07118 v 25.426295 h -3.07118 z"
       style="fill:#000000;fill-opacity:1;fill-rule:evenodd;stroke:none;stroke-width:0.28948778"
       id="path4052"
       inkscape:connector-curvature="0" />
    <path
       d="m 222.59778,-46.314706 h -3.46372 v -3.186684 h 3.46372 z m -0.19569,21.308908 h -3.07234 v -18.252494 h 3.07234 z"
       style="fill:#000000;fill-opacity:1;fill-rule:evenodd;stroke:none;stroke-width:0.28948778"
       id="path4054"
       inkscape:connector-curvature="0" />
    <path
       d="m 242.56781,-25.005798 h -3.05641 v -1.943917 c -0.2727,0.184405 -0.64238,0.446683 -1.11048,0.783644 -0.45797,0.326835 -0.90465,0.589114 -1.34004,0.784801 -0.51239,0.250988 -1.10034,0.457974 -1.7653,0.620953 -0.66495,0.173983 -1.44396,0.261122 -2.33732,0.261122 -1.64429,0 -3.03962,-0.543948 -4.18281,-1.633871 -1.14434,-1.089054 -1.7155,-2.478888 -1.7155,-4.16718 0,-1.382877 0.29412,-2.500305 0.88206,-3.349367 0.59924,-0.860649 1.4486,-1.536893 2.54895,-2.026419 1.11134,-0.490971 2.44588,-0.823304 4.00419,-0.997573 1.55715,-0.173983 3.22953,-0.303965 5.01625,-0.391096 v -0.475051 c 0,-0.696513 -0.12564,-1.274327 -0.37547,-1.731136 -0.2397,-0.457974 -0.58795,-0.817518 -1.04592,-1.078927 -0.43539,-0.250979 -0.95908,-0.419464 -1.56844,-0.506603 -0.61082,-0.08713 -1.2474,-0.131139 -1.91236,-0.131139 -0.80622,0 -1.70508,0.109722 -2.69571,0.326835 -0.99179,0.206987 -2.01629,0.512396 -3.07262,0.91594 h -0.16386 v -3.122127 c 0.59924,-0.162979 1.4654,-0.342755 2.59874,-0.538155 1.13305,-0.196852 2.24903,-0.295283 3.34937,-0.295283 1.28562,0 2.40304,0.109722 3.35053,0.326835 0.95907,0.208144 1.78672,0.566531 2.48323,1.078632 0.68637,0.501104 1.21006,1.150138 1.5696,1.945065 0.35955,0.794935 0.53932,1.781225 0.53932,2.958279 z m -3.05641,-4.49372 v -5.081963 c -0.9365,0.05416 -2.04234,0.136933 -3.31667,0.245489 -1.26419,0.108557 -2.2661,0.266907 -3.0069,0.473599 -0.88324,0.251282 -1.59682,0.642378 -2.14076,1.176191 -0.54482,0.523392 -0.81752,1.247116 -0.81752,2.173479 0,1.045914 0.31554,1.836213 0.94778,2.370035 0.63195,0.522522 1.59653,0.783644 2.89256,0.783644 1.07863,0 2.06492,-0.206987 2.95828,-0.620666 0.89336,-0.4241 1.721,-0.930702 2.48323,-1.519808 z"
       style="fill:#000000;fill-opacity:1;fill-rule:evenodd;stroke:none;stroke-width:0.28948778"
       id="path4056"
       inkscape:connector-curvature="0" />
  </g>
</svg>
