<?xml version="1.0" standalone="no"?>
<!DOCTYPE svg PUBLIC "-//W3C//DTD SVG 20010904//EN"
 "http://www.w3.org/TR/2001/REC-SVG-20010904/DTD/svg10.dtd">
<svg version="1.0" xmlns="http://www.w3.org/2000/svg"
 width="656.000000pt" height="656.000000pt" viewBox="0 0 656.000000 656.000000"
 preserveAspectRatio="xMidYMid meet">
<metadata>
Created by potrace 1.11, written by Peter Selinger 2001-2013
</metadata>
<g transform="translate(0.000000,656.000000) scale(0.100000,-0.100000)"
fill="#000000" stroke="none">
<path d="M559 6038 c-1 -2 -2 -55 -4 -118 -2 -63 -6 -149 -10 -190 -4 -41 -9
-88 -10 -105 -3 -32 -15 -118 -21 -150 -2 -10 -6 -37 -10 -60 -3 -22 -10 -60
-16 -85 -5 -25 -11 -56 -13 -70 -2 -14 -10 -55 -19 -92 -8 -36 -18 -78 -21
-92 -11 -54 -17 -77 -75 -291 -33 -121 -63 -229 -65 -239 -5 -23 -51 -184 -67
-239 -6 -20 -11 -44 -11 -52 0 -8 -3 -15 -7 -15 -4 0 -7 -6 -7 -12 0 -7 -15
-69 -32 -138 -18 -69 -35 -132 -37 -140 -29 -131 -64 -292 -68 -315 -2 -16 -5
-30 -6 -30 -1 0 -3 -13 -5 -30 -2 -16 -6 -43 -9 -60 -3 -16 -9 -50 -12 -75 -3
-25 -7 -56 -9 -69 -19 -115 -27 -539 -13 -646 3 -22 9 -67 13 -100 8 -63 13
-90 15 -90 1 0 3 -16 6 -35 10 -80 82 -333 114 -405 5 -11 18 -42 29 -70 45
-118 159 -336 231 -440 16 -24 30 -47 30 -50 0 -4 10 -20 23 -35 12 -15 32
-41 44 -57 124 -162 374 -344 643 -467 47 -22 103 -47 124 -58 22 -10 45 -18
50 -18 6 0 24 -7 39 -15 71 -37 436 -147 602 -181 39 -8 77 -18 85 -21 8 -3
24 -8 35 -10 11 -2 58 -10 105 -19 47 -9 99 -18 115 -21 26 -3 59 -9 165 -28
23 -4 68 -9 160 -20 19 -2 53 -7 75 -9 22 -3 67 -8 100 -11 33 -3 80 -7 105
-10 25 -3 90 -7 145 -11 55 -3 132 -7 170 -10 93 -5 556 -6 675 0 91 4 235 14
310 21 120 11 168 16 190 20 14 3 50 7 80 10 30 4 66 8 80 11 14 3 41 7 60 9
19 3 46 8 60 11 14 3 38 8 54 10 15 2 37 6 48 10 11 3 30 7 41 9 42 5 92 16
122 25 17 5 44 11 61 13 17 3 41 10 53 16 11 7 21 9 21 7 0 -3 18 1 40 9 22 8
40 12 40 8 0 -3 6 -1 13 5 6 5 28 13 47 17 19 4 40 10 45 14 6 3 12 6 15 7 5
1 15 4 75 27 17 7 32 12 35 13 21 4 272 124 280 134 3 3 28 20 57 38 28 18 57
40 63 48 7 7 17 14 23 14 5 0 3 -8 -5 -17 -8 -10 -28 -43 -45 -73 -124 -226
-95 -379 78 -417 72 -15 282 -8 369 12 14 3 36 8 50 11 71 12 110 28 111 43 5
73 16 185 23 236 2 17 7 64 11 105 3 41 8 89 10 105 8 57 26 228 30 274 2 20
4 36 5 36 0 0 3 23 5 50 6 71 14 153 20 200 2 22 7 65 10 95 9 83 16 142 20
175 2 17 7 66 11 110 3 44 8 87 9 96 20 102 27 601 11 739 -4 36 -9 85 -12
110 -3 25 -7 59 -10 75 -3 17 -7 44 -10 60 -22 137 -43 234 -87 385 -107 365
-281 714 -506 1013 -46 62 -88 114 -92 115 -5 2 -9 7 -9 11 0 8 -78 95 -170
190 -80 81 -205 192 -285 251 -33 25 -66 50 -73 57 -6 6 -21 15 -32 18 -11 3
-20 11 -20 16 0 5 -4 9 -10 9 -5 0 -40 19 -77 43 -138 88 -494 247 -633 282
-3 1 -12 4 -20 7 -30 12 -203 59 -235 65 -11 2 -38 8 -60 14 -22 6 -49 13 -60
15 -11 2 -45 9 -75 15 -30 7 -64 13 -75 15 -11 1 -20 3 -20 4 0 1 -9 3 -20 5
-36 5 -99 16 -160 27 -33 6 -71 12 -85 13 -90 11 -191 24 -230 30 -51 8 -177
22 -370 41 -30 3 -73 7 -95 10 -22 2 -65 6 -95 9 -67 5 -158 13 -225 20 -64 6
-165 15 -231 20 -28 2 -73 6 -100 9 -63 7 -250 24 -339 31 -38 3 -77 8 -85 10
-8 2 -46 7 -85 11 -38 3 -83 8 -100 10 -16 2 -54 6 -84 10 -30 3 -62 7 -71 9
-8 2 -43 6 -75 10 -33 4 -71 8 -85 11 -14 2 -43 6 -65 9 -60 9 -216 34 -250
40 -16 3 -57 10 -90 16 -98 17 -423 84 -456 94 -10 4 -19 5 -20 3z m2586
-1461 c17 -3 64 -8 105 -11 104 -10 151 -15 180 -21 14 -2 43 -7 65 -10 23 -3
52 -8 65 -10 14 -3 41 -8 60 -11 19 -3 42 -7 50 -10 8 -3 31 -8 50 -10 19 -3
55 -11 80 -18 25 -7 48 -14 53 -15 26 -3 75 -17 162 -44 55 -17 102 -32 105
-32 6 -2 38 -14 65 -25 11 -4 36 -14 55 -21 157 -57 374 -173 529 -283 165
-116 316 -260 436 -414 6 -7 15 -19 22 -26 73 -82 256 -419 289 -531 2 -5 15
-44 29 -85 28 -81 87 -295 87 -320 0 -8 4 -31 9 -50 4 -19 11 -57 14 -85 3
-27 7 -63 10 -80 18 -122 24 -229 25 -445 0 -182 -5 -314 -15 -357 -5 -21 -17
-28 -180 -103 -35 -17 -90 -40 -105 -45 -3 -1 -16 -6 -30 -12 -86 -36 -364
-125 -429 -138 -13 -2 -38 -9 -55 -14 -17 -5 -56 -14 -86 -20 -30 -6 -66 -13
-80 -15 -14 -3 -36 -8 -50 -11 -14 -3 -41 -7 -60 -10 -34 -4 -97 -12 -150 -20
-160 -23 -628 -24 -748 0 -11 2 -41 6 -68 9 -199 25 -437 87 -629 163 -87 34
-275 122 -285 133 -3 3 -21 14 -40 24 -35 19 -171 107 -180 116 -3 3 -32 25
-65 50 -51 37 -271 252 -309 300 -34 43 -116 160 -136 195 -13 22 -28 43 -33
46 -4 3 -9 13 -11 21 -1 8 -8 26 -17 39 -48 79 -122 290 -134 386 -2 11 -6 29
-9 40 -5 18 -15 79 -21 143 -2 19 -7 51 -11 70 -15 80 -7 578 11 705 2 17 6
53 10 80 9 88 23 188 30 223 1 10 6 39 9 66 4 27 9 52 11 56 2 3 6 26 10 50 4
25 18 91 31 148 13 57 26 111 28 120 11 60 19 72 45 73 14 0 35 2 46 5 11 2
43 6 70 9 28 3 68 8 90 11 50 7 93 11 220 19 55 4 101 8 103 10 5 5 639 -3
677 -8z"/>
</g>
</svg>
